<svg id="Calque_1" data-name="Calque 1" xmlns="http://www.w3.org/2000/svg" viewBox="0 0 868.96 390.39"><defs><style>.cls-1{fill:#d0b3a1;}</style></defs><title>logo_myorigines_final</title><path class="cls-1" d="M667.06,152.57a187.46,187.46,0,0,0-38.24-61.88q-25-26.81-60.82-42.76C544.1,37.31,510.14,32,480.05,32c-27.62,0-47,4.51-71.92,13.54A195.33,195.33,0,0,0,342.8,84.31q-27.89,25.23-44.35,61.61T282,228q0,43,15.67,78.88a187.54,187.54,0,0,0,42.76,61.61,191.44,191.44,0,0,0,63.21,39.84,215.11,215.11,0,0,0,153.77-.26,191.09,191.09,0,0,0,63.74-40.9,197.36,197.36,0,0,0,43.29-62.68q15.93-36.12,15.93-78.61A205.49,205.49,0,0,0,667.06,152.57ZM603.83,301.1q-10.67,34.54-29,59.94t-42.67,39.11a104.81,104.81,0,0,1-52,13.71,102.63,102.63,0,0,1-50.94-13.46q-24.18-13.45-42.31-38.1t-28.62-58.92Q347.84,269.09,347.83,228q0-43.68,11-78.48t29.69-58.92q18.66-24.12,43.73-37.08c16.71-8.64,29.42-12.95,47.91-12.95,20.14,0,43.12,5.08,59.12,15.24S568.87,79.55,580,96.65s19.67,36.83,25.6,59.18a272.63,272.63,0,0,1,8.89,70.1Q614.5,266.57,603.83,301.1Z" transform="translate(-38.66 -32)"/><path d="M856.05,263.72q-8.12-2.18-8.11-5.67,0-1.74,2.62-4.62a10.26,10.26,0,0,0,2.79-6.54,7.82,7.82,0,0,0-3.05-6.45,11.34,11.34,0,0,0-8.11-2.62A8,8,0,0,0,835,242a13.27,13.27,0,0,0-1.57,8.72q1,8.21,11.78,13.43t28,5.23q17.26,0,25.82-7.24t8.55-19.28a20.5,20.5,0,0,0-5.84-15,34.73,34.73,0,0,0-14.13-8.64q-8.28-2.7-16.66-4.88a54.34,54.34,0,0,1-14.22-5.67c-3.9-2.32-5.84-5.12-5.84-8.37s1.57-6,4.71-8.2,7.18-3.31,12.12-3.31a52.33,52.33,0,0,1,13.08,1.48q5.67,1.49,5.67,4.45,0,1.74-2.62,4.62a10.21,10.21,0,0,0-2.79,6.54,7.78,7.78,0,0,0,3,6.45,11.46,11.46,0,0,0,8.2,2.62,7.84,7.84,0,0,0,7.15-4.19,13.59,13.59,0,0,0,1.48-8.72q-1.05-7.68-9.77-12.21t-22.94-4.54q-14.22,0-23.9,6.8t-10.73,17.27q-1,10.47,4.62,16.92a32.91,32.91,0,0,0,14.3,9.42q8.64,3,17.53,5.23a61.42,61.42,0,0,1,15.18,5.84q6.29,3.57,6.28,9.16,0,9.94-18.14,9.94a66,66,0,0,1-17.36-2.16" transform="translate(-38.66 -32)"/><path d="M822.28,225.75q0-18.74-10.69-29.56c-5.9-6-12.68-9.87-23.84-10.67-1.47-.14-3-.22-4.53-.22a50.44,50.44,0,0,0-6.22.38c-9.75,1-17.08,4.55-23.11,10.58q-.75.75-1.44,1.53a31.89,31.89,0,0,0-6.17,9.89,47.19,47.19,0,0,0-3.29,18.2c0,.45,0,.87,0,1.27q0,12.33,3.94,21a29,29,0,0,0,10.95,13.14,50,50,0,0,0,14.36,6.22,68.19,68.19,0,0,0,16.55,1.84,52.42,52.42,0,0,0,19.1-4,21.66,21.66,0,0,0,7.82-4.69c3.65-3.39,4.07-11.55,4.07-11.55a15.37,15.37,0,0,1-5.64,7.9c-2.83,2.1-5.87,2.94-7.39,3.61a39.88,39.88,0,0,1-13.5,2.78q-22.24,0-24-30.83h52.9C822.2,231,822.28,226.61,822.28,225.75Zm-29.16,3.35h-24v-1.93a97.35,97.35,0,0,1,3.33-26.71c2.22-7.77,6-11,11.07-11s8.46,3.37,10.74,11.43c3,8.68,3,23.55,3,23.55A4.09,4.09,0,0,1,793.12,229.1Z" transform="translate(-38.66 -32)"/><path d="M731.79,259.12c-.26-7,0-21.89,0-21.88l0-21.68q-2-25.83-27.83-25.84a32.72,32.72,0,0,0-13.76,2.91,23.58,23.58,0,0,0-9.11,6.68l-.19-9.74-40.15,11.14s8.13-1.59,9.15,12.73.15,43,.09,45.64c-.14,5.79.38,10.22-9.27,10.22h49.55c-1.56,0-9.13-1-9.13-10.17V204.89c2.28-5.18,8.24-8.87,14-8.87a14.69,14.69,0,0,1,10.17,4.46c1.63,1.8,2.41,4.93,2.54,8.45,0,5.6-.1,16.66-.38,26.24-.25,8.78.24,20.84.07,24.13s.87,9.82-7.65,10h39.9C737.27,269.29,731.79,268.25,731.79,259.12Z" transform="translate(-38.66 -32)"/><path d="M629.84,259.05c0-1,0-69.55,0-69.55s-12.32,4.78-18,3.65a15.29,15.29,0,0,1-8.47-4.17c-1.8-1.94-1.44-3.4-.65-4.18.6-.48,2.54-.57,4.88-.29a15.75,15.75,0,0,0,7.46-1.06q4-1.48,6.52-6.37a13.74,13.74,0,0,0-7.14-18.48,15.54,15.54,0,0,0-11.26.17,16.07,16.07,0,0,0-8.94,8.54q-3.06,6.34.31,15.37a22.11,22.11,0,0,0,11.39,12.84c.53.25,1.07.48,1.6.68l-14.76,4.49s7.41-1.59,8.34,12.73.29,36.82,0,45.78c-.28,8.51-5.24,10.08-8.37,10.08h45.12C636.47,269.25,630.25,268.42,629.84,259.05Z" transform="translate(-38.66 -32)"/><path d="M572,280.87c2.73,1.47,3.93,3.25,3.62,5.35s-1.89,4.19-4.72,6.29c-6.08,4.61-20,7-29.2,7s-16.17-1.56-22.39-4.42c-7.6-2.88-11.95-10.58,1.1-19.13a27.63,27.63,0,0,0,12.74,2.67h26.42q8.34,0,12.43,2.2M553.74,239a10.13,10.13,0,0,1-9.2,5.19,9.71,9.71,0,0,1-9-5.35q-3-5.34-3-18.56t2.83-18.17q2.83-4.95,9-4.95a10.42,10.42,0,0,1,9.36,4.88q3.15,4.88,3.15,18.32T553.74,239m-23.91,6.76a48.82,48.82,0,0,0,13,1.57q15.25,0,26.42-6.84t11.17-20.21q0-13.37-13.53-20.92-7.71-5.19-7.71-13.84a15.16,15.16,0,0,1,2-7.79,10,10,0,0,1,4.64-4.48q2.67-1.09,3.15,1.42a12.68,12.68,0,0,1-1.18,2.59,11.44,11.44,0,0,0-1.18,5.35,9.87,9.87,0,0,0,17.06,5.9,11.31,11.31,0,0,0,2.75-7.71,11.68,11.68,0,0,0-3.54-8.26q-3.54-3.69-10.54-3.7a16.06,16.06,0,0,0-11.64,4.48,15,15,0,0,0-4.64,11.25,18.94,18.94,0,0,0,3.62,11.64,47.37,47.37,0,0,0-14.15-2.2,50.62,50.62,0,0,0-26.5,7q-11.71,7-11.72,19.74,0,17.15,18.09,23.75a31.78,31.78,0,0,0-8.89,7.94,17.82,17.82,0,0,0-3.85,11.25,13.26,13.26,0,0,0,5,10.54,16,16,0,0,0-6.76,4,12.77,12.77,0,0,0-3.72,7.81c-.31,3.09,2.89,8.77,7.06,10.6,7.3,4.17,19.84,6,27.38,6,8.08,0,25.32-2.57,31.4-7.5s9.67-10.33,10.77-16.2-.18-10.8-3.85-14.78-10.17-6-19.5-6h-27q-5.66-.63-5.66-5a14.46,14.46,0,0,1,2.05-7.4" transform="translate(-38.66 -32)"/><path d="M494,259.05c0-1,0-69.55,0-69.55s-12.32,4.78-18,3.65A15.29,15.29,0,0,1,467.5,189c-1.8-1.94-1.44-3.4-.65-4.18.6-.48,2.54-.57,4.88-.29a15.75,15.75,0,0,0,7.46-1.06q4-1.48,6.52-6.37a13.74,13.74,0,0,0-7.14-18.48,15.54,15.54,0,0,0-11.26.17,16.07,16.07,0,0,0-8.94,8.54q-3.06,6.34.31,15.37a22.11,22.11,0,0,0,11.39,12.84c.53.25,1.07.48,1.6.68l-14.76,4.49s7.41-1.59,8.34,12.73.29,36.82.05,45.78c-.28,8.51-5.24,10.08-8.37,10.08h45.12C500.6,269.25,494.38,268.42,494,259.05Z" transform="translate(-38.66 -32)"/><path d="M452.7,197a10.27,10.27,0,0,0-5.74-6,21.9,21.9,0,0,0-8-1.49,26.29,26.29,0,0,0-8.65,1.57,17.9,17.9,0,0,0-8.18,6.45A29.24,29.24,0,0,0,417,210.06V189.5l-40.57,11.21s8.13-1.59,9.15,12.73c1,13.56.17,43.91.13,45.61a23.84,23.84,0,0,1-.46,4.15,8.49,8.49,0,0,1-5.45,5.46,15.1,15.1,0,0,1-3.49.64h49.55c-1.58-.05-8.32-.88-8.77-10.25-.05-1-.12-28.43-.12-28.43a65.07,65.07,0,0,1,3.62-21.78q3.61-10.31,6.61-10.3,2.67,0,4.25,5.82a17.44,17.44,0,0,0,2.2,4.64,10.4,10.4,0,0,0,5.19,3.85,10.1,10.1,0,0,0,7.94-.47,11,11,0,0,0,6.06-6.37A11.59,11.59,0,0,0,452.7,197Z" transform="translate(-38.66 -32)"/><path d="M361.17,190.26c-7.67-7.77-16.64-12.5-32.66-12.5-15,0-25.56,4.19-33.94,12.58S282,208.83,282,223.24s4.19,26.78,12.58,34.49,21,11.56,34,11.56c13.58,0,24.36-4.49,32.18-11.64,8.49-7.76,12.74-19.89,12.74-34.31S369.4,198.6,361.17,190.26Zm-32.55,75.91c-4.91-.14-9.65-4.95-11.78-11-2.59-7.37-4.29-18.29-4.29-31.82s1.66-23.54,4.47-31.09c2.75-7.39,6-11.37,11.6-11.34s8.61,3.82,11.33,11.26S344,210,344,223.4c0,14-1.16,24.64-3.68,31.74C338.11,261.36,333.51,266.19,328.62,266.17Z" transform="translate(-38.66 -32)"/><path d="M302.35,213.21c-7.39,4.12-14.91,8.54-22.38,13.13-7.27,4.48-14.8,9.51-22.39,15,.34-1.82.76-4,1.27-6.4.59-2.86,1.21-6,1.84-9.24s1.2-6.38,1.71-9.24.88-5.42,1.06-7.4v0a9.72,9.72,0,0,0-1.65-5.85,8.67,8.67,0,0,0-3.86-3.08,7.23,7.23,0,0,0-4.45-.28,4.57,4.57,0,0,0-3.15,2.35l0,.05c-.18.55-.5,1.87-.93,3.92s-.83,3.68-1.17,4.9a50.2,50.2,0,0,1-4.29,7.27,113.27,113.27,0,0,1-7.08,9.2c-2.72,3.21-5.55,6.31-8.4,9.21a66.49,66.49,0,0,1-8.37,7.32,18,18,0,0,1-6.94,3.41,3.28,3.28,0,0,1-3.91-2.18c-.66-1.51-.61-3.82.15-6.84a87.87,87.87,0,0,1,8.11-20.25c.68-1.23,1.21-2.28,1.67-3.21a20.78,20.78,0,0,1,2.37-4l.06-.08a5.9,5.9,0,0,0,1.21-3.91h0a10.62,10.62,0,0,0-1.78-4.31,5.17,5.17,0,0,0-3.69-2.3c-1.53-.19-3.23.66-5.06,2.52a50.64,50.64,0,0,0-10.61,15.65,66.36,66.36,0,0,0-5.42,18.31c-.79,5.93-.3,11,1.47,15.2s5.47,6.39,10.88,6.39a25,25,0,0,0,10-2.44,57.67,57.67,0,0,0,11-6.6,87.65,87.65,0,0,0,10.7-9.55A111.75,111.75,0,0,0,249,229.5c-.49,3.22-1.12,6.5-1.87,9.8-.88,3.84-1.84,7.71-2.86,11.5-8.71,6.74-17.27,13.93-25.44,21.36a276.73,276.73,0,0,0-23.05,23.59,243.82,243.82,0,0,0-19.24,25.34c-5.94,9-9.9,22.45-10.47,26.28a84.65,84.65,0,0,0-.93,12.37A34.53,34.53,0,0,0,166.9,371a18.79,18.79,0,0,0,5.64,8.34c2.61,2.19,6.19,3.3,10.64,3.3,5.86,0,11.74-2.51,17.49-7.46a90.41,90.41,0,0,0,16.52-19.76c5.42-8.46,15.52-30.68,19.4-41.73,4-11.45,7.73-23,11.06-34.42s6.13-22,8.39-31.74c8.24-6.25,16.35-12.43,24.09-18.39a202.09,202.09,0,0,1,22.58-15.23ZM175.71,350.43c1-8.21,8.4-22.93,14.3-31.58,6.12-9,12.53-17.53,19.05-25.4s13-15.12,19.05-21.39a191.56,191.56,0,0,1,14.59-13.82c-3.08,12.74-6.79,26-11,39.4s-16.14,42-21.95,51.6-11.63,16.5-17.52,20.9c-3.94,2.79-6.92,3.91-9.09,3.74C171.75,373.15,174.76,358.48,175.71,350.43Z" transform="translate(-38.66 -32)"/><path d="M197.36,247.89l-.11.09-7.82,6.5c-3,2.51-6.21,5.11-9.5,7.73s-6.59,5.14-9.91,7.54-6.33,4.41-9.05,6a30.3,30.3,0,0,1-6.65,3.11,3.22,3.22,0,0,1-1.33.18c-.06-.25-.18-1.29.51-4.12a90.5,90.5,0,0,1,3.35-10.29c1.56-4.1,3.45-8.69,5.6-13.64s4.49-10.14,6.92-15.4,4.94-10.55,7.38-15.56,4.79-9.88,6.87-14.21,3.91-8.11,5.48-11.31,2.71-5.61,3.34-7.12c.51-1.25,1.29-3.22,2.3-5.86s2-5.61,2.88-8.64a53.92,53.92,0,0,0,1.83-9.31,15.11,15.11,0,0,0-1.14-8.37c-.89-1.76-2.83-3.9-7-4.16-3-.18-7,1-12.25,3.72a78.74,78.74,0,0,0-14.43,9.49,197,197,0,0,0-15.5,14C144,183.39,138.88,188.89,134,194.6q-1.54,1.82-3,3.61c.12-.3,4.62-12.34,6.21-17.68a97.89,97.89,0,0,0,3.27-14.3c.67-4.87-.05-8.11-2.2-9.9-2.47-2.18-6-2.15-10.38.1a66.65,66.65,0,0,0-12.81,9.15,208.27,208.27,0,0,0-15.26,15c-5.39,5.8-10.85,12-16.23,18.31-4.83,5.7-9.56,11.5-14.08,17.27q2.14-3.78,4.43-7.75c3.31-5.77,6.66-11.79,9.94-17.9a141.56,141.56,0,0,0,8-17.35,45.46,45.46,0,0,0,3.19-14.95c.06-4.87-1.71-8.67-5.25-11.28l0,0c-2.86-2-6.51-2.56-10.84-1.59a44.85,44.85,0,0,0-12.2,4.89,82.89,82.89,0,0,0-12.22,8.53,106.81,106.81,0,0,0-10.36,9.75l-.11.13c-.38.49-1,1.28-2,2.42a19.23,19.23,0,0,0-2.59,3.87,5.84,5.84,0,0,0-.56,4.5c.68,1.93,2.69,2.57,6,1.9l1-.2.5-.89A32.36,32.36,0,0,1,51.49,174a120.24,120.24,0,0,1,9.21-8.38A94.91,94.91,0,0,1,71.27,158,30.74,30.74,0,0,1,80.42,154c2.9-.63,3.72.42,4,.82s1.24,2.23-.1,8.48a95.49,95.49,0,0,1-4.91,14.3c-2.41,5.77-5.12,11.85-8,18.07S65.5,208,62.57,213.91,57.15,225,55.22,229.27C54.09,231.77,44,251,43.08,252.33l0,0a7.87,7.87,0,0,0-1.68,4.78,6.35,6.35,0,0,0,1.19,3.52,6.67,6.67,0,0,0,2.52,2.09c1.82.86,3.4-.68,5.28-2.78a68.37,68.37,0,0,0,4.4-5.54c2.74-3.81,6.09-8.34,10-13.46S73,230.29,77.79,224.36s9.73-11.87,14.69-17.73,9.86-11.45,14.66-16.69,9.15-9.72,13.08-13.47a74.66,74.66,0,0,1,9.76-8.13c1.5-1,2.25-1.53,2.64-1.28s.45,1.74-.17,5.08a113.61,113.61,0,0,1-3.14,12.32c-1.46,4.75-3.16,9.86-5.08,15.19-1.86,5.18-18,37.36-18.89,38.87l0,.09a7.54,7.54,0,0,0-1.15,4.5,5.1,5.1,0,0,0,1.38,3,5.47,5.47,0,0,0,2.17,1.4c1.73.59,2.66-.86,3.4-2,.45-.71,1.08-1.73,1.91-3.12,1.54-2.56,3.51-5.95,5.6-9.53,3.61-6.18,7.35-12.57,8.71-14.57,2.95-4.32,6.4-8.92,10.26-13.66s8.09-9.56,12.63-14.39,9.06-9.25,13.51-13.21a138.44,138.44,0,0,1,12.91-10.31,37.15,37.15,0,0,1,10.55-5.5,6,6,0,0,1,.75-.18c.37,0,.21,1.1,0,2.39a35.15,35.15,0,0,1-1.37,5.62c-.69,2.16-1.44,4.25-2.23,6.21s-1.55,3.72-2.23,5.16c-1,2-1.19,2.59-1.3,2.9-1.11,2.76-2.78,6.71-5,11.75s-4.75,10.86-7.55,17.22-5.64,12.9-8.62,19.8-5.62,13.39-8,19.57-4.26,11.72-5.69,16.52c-1.52,5.08-2.15,8.76-1.91,11.26.57,5.57,4,6.55,5.92,6.65h.49c2.54,0,5.5-.87,9-2.66a80.45,80.45,0,0,0,11.38-7.26c4-3,8-6.15,11.76-9.31s7.3-6.25,10.44-9.14,5.5-5,7.14-6.49Z" transform="translate(-38.66 -32)"/></svg>
